<?xml version="1.0" encoding="UTF-8"?>
<svg id="Layer_4" data-name="Layer 4" xmlns="http://www.w3.org/2000/svg" viewBox="0 0 4652 4669.64">
  <defs>
    <style>
      .cls-1 {
        fill: #c29f41;
      }

      .cls-2 {
        fill: #f9f9f7;
      }
    </style>
  </defs>
  <g>
    <path class="cls-2" d="M4647.57,2606.21c-8.44-27.53-219.89-153.9-262.28-176.48-978.15-521.07-1917.57-21.38-2358.71,912.38-48.3,102.22-75.84,218.57-120.49,318.06-8.62,19.2,7.63,29.3-33.83,22.74l-308.96-941.69,416.86,305.76c88.46,74.18,197.18-117.29,228.67-188.54,46.75-105.77,61.78-236.54,105.77-349,183.69-469.53,567.82-775.63,1068.59-840.18h341.23c91.97,13.4,180.42,34.54,268.37,64.7,172.23,59.05,393.34,259.94,535.15,48.19,65.12-97.24,26.54-167.81-7.06-267.42C4249.21,709.28,3386.31,62.94,2538.24,12.83c-129.15-17.21-260.79-17-389.98,0C1126.73,69.14,243.04,869.09,43.44,1863.57c-39.65,197.58-92.95,590.58,50.31,746.57,201.52,219.43,476.41-64.39,595.69-230.88,256.06-357.4,566.38-1238.22,1163.13-1022.7,25.87,9.34,43.57-8.79,35.62,36.53-310.25-32.36-605.09,262.47-633.43,560.48-33.44,351.59,310.25,1266.93,434.2,1644.38,37.69,114.78,83.9,302.41,133.52,402.47,20.76,41.87,49.21,85.4,103.08,70.15,67.05-18.99,67.45-178.87,84.53-241.52,206.6-757.78,752.52-1460.51,1600.58-1477.58-148.2,329.15-74.88,674.95,146.25,949.56-288.69,144.8-631.18,131.12-934.61,41.17-73.02-21.65-369.06-162.72-390.2-162.41-31.43.47-99.19,86.69-81.77,113.88,29.47,45.99,418.74,186.26,493.1,206.03,479.39,127.44,923.75,25.51,1318.29-264.75l245.28-209.57c-338.97,1019.75-1421.39,1673.95-2486.41,1461.57-662.35-132.08-1256.61-586.12-1551.44-1193.95-46.7-96.28-124.95-386.62-163.33-437.62-24.81-32.97-112.81-50.97-153.63-49.29,66.58,363.48,241.59,711.58,471.59,998.2,383,477.3,1007.49,826.6,1624.46,853.02,123.89,16.25,249.89,16.59,373.73,0,796.25-39.31,1571.35-600.28,1915.44-1309.23,61.08-125.84,245.33-627.19,210.15-741.88ZM1989.98,1526.99c62.46,9.85,186.31,89.06,228.57,75.62,114.32-36.36-43.06-211.14-86.18-250.4-315.47-287.2-753.21-168.61-1023.97,114.13-253.45,264.66-439.08,835.12-700.17,1021.63-362.18,258.73-251.56-449.35-215.53-621.39C575.01,41.25,3003.68-480.26,4104.87,1037.32c85.51,117.84,315.05,508.54,318.89,641.2,1.47,50.76-35.06,61.71-85.91,53.06-63.29-10.77-233.03-118.81-324.46-148.13-103.81-33.29-213.12-53.75-321.47-60.35-75.31-1.64-149.56-7.86-222.75-18.66-12.5-7.7-47.7-263.19-25.47-286.99,103.69-73.8,152.08-161.65,131.87-289.94-36.45-231.35-208.23-230.51-397.92-203.82-240.78-175.89-503.19-75.18-608.45,190.68-348.07,103.45-300.88,523.37,55.41,553.51,20.09,10.88,27.43,18.03,41.64,35.17,17.15,20.69,45.41,90.9,58.98,154.21,7.92-1.55,15.76-3.88,23.63-5.33,7.12-1.31,14.88-2.34,22.14-1.15-.97-46.76,45.96-111.62,101.79-131.8,245.9-117.29,215.51-117.82-91.17-1.61-48.13-3.5-84.73-43.3-109.79-119.4-350.38,75.23-386.27-416.28-43.49-431.41,40.9-270.59,354.74-377.55,539.65-166.61,312.07-174.28,528.65,248.79,202.95,404.32,9.55,98.05,24.75,195.9,45.6,293.55l-33.35,25.26c-185.46,13.83-392.09,86.8-552.47,178.63-13.04-.65-23.69-3.16-32.19-7.14.45,1.3.36,2.81-.6,4.36-12.64,20.42-39.34,9.01-50.39-6.8-2.01-2.87,0-7.41,3.32-8.15,9.03-2.02,17.11-6.65,25.79-9.63-1.93-3.68-3.35-7.64-4.28-11.83-8.37-2.9-18.53-.44-26.79,1.37-6.03,1.32-12.08,2.91-18.18,4.14,8.67,45.8,8.61,86.13-10.42,98.64-150.3,106.84-324.75,306.87-419.32,465.98-126.39,212.66-186.04,449.32-247.09,686.98-282.32-183.72-611.64-443.63-647.77-805.81-34.82-349.05,226.41-643.74,587.19-586.86ZM4080.31,3121.1c-116.57,88.92-156.87,161.55-265.1,24.55-172.91-218.86-178.22-527.03-72.59-776.14,271.27,15.2,514.91,143.27,744.5,275.61-88.93,175.4-248.49,355.22-406.8,475.99Z"/>
    <path class="cls-2" d="M3979.8,2770.23c167.39,49.68,177.42-217.74,16.65-189.03-102.5,18.3-102.47,163.56-16.65,189.03Z"/>
  </g>
  <path class="cls-1" d="M2716.98,1766.69c-11.29-53.51-54.75-230.44-89.11-260.1-30.55-26.37-129.17-15.75-203.8-72.39-176.65-134.09-165.05-383.24,21.36-499.15,30.02-18.67,80.06-25.02,101.88-44.33,27.74-24.55,55.49-122.11,103.97-172.16,98.87-102.1,272.96-141.62,407.25-97.03,42.89,14.24,91.72,65.3,124.85,70.46,51.4,8.01,140.41-26.06,220.46-9.61,190.22,39.07,264.77,303.16,162.01,463.03-24.45,38.04-100.31,90.09-101.97,96.92-16.71,68.62,49.64,187.13,33,264.62l195.04,16.16c-91.41-5.57-217.99-6.77-308.73,0,12.06-78.79-79.89-298-32.68-349.42,14.31-15.59,61.44-25.79,90.34-55.79,142.09-147.5,20.36-366.69-192.13-321.87-27.91,5.89-69.64,41.85-85.11,40.65-12.73-.98-82.57-87.35-137.41-101.68-157.55-41.18-278.72,16.98-344.97,159.56-10.91,23.48-22.86,101.31-31.36,106.81-12.99,8.41-57.87-1.78-83.38,5.68-199.74,58.36-187.58,332.36.13,366.67,43.68,7.98,98.32-15.37,117.8-5.77,38.5,18.98,59.15,116.46,66.34,121.6,17.05,12.21,335.56-143.09,404.96-96.2-51.29,66.46-339.62,155.97-351.01,234.58-2.63,18.15,10.27,59.45,26.04,73.81-30.24,17.31-91.38,49.06-113.74,64.96Z"/>
</svg>
