<?xml version="1.0" encoding="UTF-8"?>
<svg id="Layer_1" data-name="Layer 1" xmlns="http://www.w3.org/2000/svg" viewBox="0 0 4191.24 4207.13">
  <defs>
    <style>
      .cls-1 {
        fill: #c29f41;
      }

      .cls-2 {
        fill: #00213d;
      }
    </style>
  </defs>
  <g>
    <path class="cls-2" d="M4187.25,2348.08c-7.61-24.8-198.11-138.66-236.3-159-881.27-469.46-1727.64-19.26-2125.1,822.01-43.51,92.1-68.33,196.93-108.56,286.56-7.76,17.3,6.87,26.4-30.48,20.49l-278.36-848.42,375.57,275.47c79.7,66.83,177.65-105.67,206.02-169.87,42.12-95.3,55.66-213.12,95.3-314.43,165.5-423.03,511.58-698.81,962.75-756.97h307.43c82.86,12.07,162.55,31.12,241.79,58.29,155.17,53.2,354.38,234.2,482.15,43.42,58.67-87.61,23.91-151.19-6.36-240.93C3828.34,639.03,3050.91,56.71,2286.84,11.56c-116.36-15.51-234.96-15.32-351.35,0C1015.14,62.29,218.97,783.01,39.14,1678.99c-35.73,178.01-83.74,532.09,45.33,672.63,181.56,197.7,429.22-58.02,536.69-208.01,230.7-322,510.29-1115.58,1047.93-921.41,23.3,8.42,39.25-7.92,32.09,32.91-279.52-29.16-545.16,236.47-570.69,504.96-30.13,316.77,279.52,1141.44,391.2,1481.51,33.96,103.41,75.59,272.46,120.29,362.61,18.7,37.72,44.34,76.94,92.87,63.2,60.41-17.11,60.77-161.15,76.16-217.6,186.13-682.72,677.99-1315.85,1442.05-1331.23-133.52,296.55-67.46,608.1,131.77,855.51-260.1,130.46-568.67,118.14-842.04,37.09-65.78-19.5-332.51-146.6-351.55-146.32-28.32.42-89.37,78.1-73.67,102.6,26.55,41.43,377.26,167.81,444.26,185.62,431.9,114.82,832.26,22.98,1187.72-238.53l220.99-188.81c-305.4,918.75-1280.61,1508.15-2240.14,1316.81-596.75-119-1132.14-528.07-1397.78-1075.69-42.08-86.74-112.57-348.32-147.16-394.28-22.36-29.71-101.64-45.92-138.41-44.41,59.98,327.48,217.67,641.1,424.88,899.33,345.07,430.02,907.7,744.73,1463.56,768.53,111.62,14.64,225.14,14.94,336.71,0,717.38-35.41,1415.72-540.82,1725.72-1179.56,55.03-113.37,221.03-565.07,189.33-668.4ZM1792.89,1375.75c56.27,8.87,167.86,80.24,205.93,68.13,102.99-32.76-38.8-190.23-77.64-225.6-284.23-258.76-678.61-151.91-922.55,102.83-228.35,238.44-395.59,752.4-630.82,920.45-326.3,233.1-226.65-404.84-194.18-559.85C518.05,37.17,2706.18-432.69,3698.3,934.58c77.04,106.17,283.85,458.17,287.31,577.69,1.32,45.73-31.59,55.6-77.4,47.8-57.02-9.7-209.95-107.04-292.32-133.46-93.53-29.99-192.01-48.42-289.63-54.37-67.85-1.48-134.75-7.08-200.69-16.81-11.26-6.94-42.98-237.12-22.95-258.57,93.42-66.49,137.02-145.64,118.81-261.22-32.84-208.44-187.6-207.68-358.51-183.63-216.93-158.47-453.35-67.73-548.19,171.8-313.6,93.2-271.07,471.53,49.92,498.69,18.1,9.8,24.72,16.24,37.52,31.69,15.45,18.64,40.91,81.89,53.13,138.93,7.14-1.4,14.2-3.49,21.29-4.8,6.42-1.18,13.41-2.11,19.95-1.03-.87-42.12,41.41-100.57,91.71-118.75,221.55-105.67,194.17-106.15-82.14-1.45-43.36-3.15-76.34-39.01-98.92-107.58-315.68,67.78-348.01-375.05-39.18-388.68,36.85-243.79,319.6-340.15,486.2-150.11,281.16-157.02,476.29,224.15,182.85,364.27,8.6,88.34,22.3,176.49,41.09,264.47l-30.04,22.76c-167.09,12.46-353.25,78.21-497.75,160.94-11.75-.58-21.34-2.85-29-6.43.41,1.17.33,2.53-.54,3.93-11.39,18.39-35.44,8.12-45.4-6.13-1.81-2.59,0-6.68,2.99-7.34,8.14-1.82,15.41-5.99,23.24-8.68-1.74-3.32-3.02-6.89-3.86-10.66-7.54-2.61-16.69-.4-24.13,1.23-5.43,1.19-10.88,2.62-16.38,3.73,7.81,41.26,7.76,77.6-9.39,88.87-135.41,96.26-292.58,276.47-377.79,419.83-113.88,191.6-167.61,404.81-222.62,618.94-254.36-165.52-551.06-399.69-583.61-726-31.37-314.48,203.98-579.98,529.03-528.73ZM3676.17,2811.97c-105.03,80.11-141.33,145.55-238.85,22.11-155.78-197.18-160.57-474.83-65.4-699.27,244.4,13.69,463.91,129.08,670.76,248.31-80.12,158.03-223.87,320.04-366.51,428.84Z"/>
    <path class="cls-2" d="M3585.62,2495.86c150.81,44.76,159.85-196.17,15.01-170.31-92.34,16.49-92.32,147.36-15.01,170.31Z"/>
  </g>
  <path class="cls-1" d="M2447.87,1591.71c-10.17-48.21-49.33-207.62-80.28-234.33-27.53-23.76-116.38-14.19-183.61-65.22-159.16-120.81-148.7-345.28,19.25-449.71,27.05-16.82,72.13-22.54,91.79-39.94,24.99-22.12,50-110.01,93.67-155.11,89.08-91.99,245.92-127.59,366.91-87.42,38.64,12.83,82.63,58.83,112.48,63.48,46.31,7.21,126.5-23.47,198.62-8.66,171.38,35.2,238.55,273.14,145.96,417.17-22.03,34.27-90.37,81.17-91.87,87.32-15.05,61.82,44.73,168.59,29.73,238.41l175.72,14.56c-82.35-5.02-196.4-6.1-278.15,0,10.87-70.99-71.98-268.49-29.45-314.81,12.89-14.04,55.35-23.23,81.39-50.26,128.02-132.89,18.34-330.37-173.1-289.99-25.14,5.3-62.75,37.7-76.68,36.63-11.47-.89-74.39-78.69-123.8-91.61-141.94-37.11-251.12,15.3-310.8,143.76-9.83,21.15-20.6,91.28-28.25,96.23-11.71,7.58-52.14-1.6-75.13,5.12-179.96,52.58-169,299.44.12,330.35,39.35,7.19,88.58-13.85,106.13-5.2,34.68,17.1,53.29,104.92,59.77,109.56,15.36,11,302.32-128.91,364.85-86.67-46.21,59.88-305.99,140.52-316.25,211.34-2.37,16.35,9.25,53.56,23.46,66.5-27.24,15.6-82.32,44.2-102.48,58.52Z"/>
</svg>